HIERARCHY
ROOT Hips
{
	OFFSET 0.000000 103.266502 0.000000
	CHANNELS 6 Xposition Yposition Zposition Xrotation Yrotation Zrotation 
	JOINT Spine
	{
		OFFSET -0.002400 12.777504 0.315300
		CHANNELS 3 Xrotation Yrotation Zrotation
		JOINT Spine1
		{
			OFFSET -0.002067 5.816869 0.032633
			CHANNELS 3 Xrotation Yrotation Zrotation
			JOINT Spine1_split
			{
				OFFSET -0.002067 5.816869 0.032633
				CHANNELS 3 Xrotation Yrotation Zrotation
				JOINT Spine2
				{
					OFFSET -0.002067 5.816869 0.032633
					CHANNELS 3 Xrotation Yrotation Zrotation
					JOINT Neck
					{
						OFFSET -0.003700 21.199493 -0.826900
						CHANNELS 3 Xrotation Yrotation Zrotation
						JOINT Head
						{
							OFFSET 0.000000 20.442200 4.834800
							CHANNELS 3 Xrotation Yrotation Zrotation
							JOINT HeadTop_End
							{
								OFFSET 0.000000 34.668396 4.968400
								CHANNELS 3 Xrotation Yrotation Zrotation
								End Site
								{
									OFFSET 0.000000 0.000000 0.000000
								}
							}
						}
					}
					JOINT LeftShoulder
					{
						OFFSET 3.288150 8.794197 -1.372250
						CHANNELS 3 Xrotation Yrotation Zrotation
						JOINT LeftShoulder_split
						{
							OFFSET 3.288150 8.794197 -1.372250
							CHANNELS 3 Xrotation Yrotation Zrotation
							JOINT LeftArm
							{
								OFFSET 11.953299 -2.279007 -0.146200
								CHANNELS 3 Xrotation Yrotation Zrotation
								JOINT LeftForeArm
								{
									OFFSET 18.448900 0.000000 0.000000
									CHANNELS 3 Xrotation Yrotation Zrotation
									JOINT LeftHand
									{
										OFFSET 29.527798 0.000000 0.000000
										CHANNELS 3 Xrotation Yrotation Zrotation
										JOINT LeftHandThumb1
										{
											OFFSET 10.739754 -2.369614 9.225399
											CHANNELS 3 Xrotation Yrotation Zrotation
											JOINT LeftHandThumb2
											{
												OFFSET 4.926170 -2.844131 2.844125
												CHANNELS 3 Xrotation Yrotation Zrotation
												JOINT LeftHandThumb3
												{
													OFFSET 4.614891 -2.664413 2.664409
													CHANNELS 3 Xrotation Yrotation Zrotation
													JOINT LeftHandThumb4
													{
														OFFSET 4.432465 -2.559082 2.559083
														CHANNELS 3 Xrotation Yrotation Zrotation
														End Site
														{
															OFFSET 0.000000 0.000000 0.000000
														}
													}
												}
											}
										}
										JOINT LeftHandIndex1
										{
											OFFSET 26.467674 0.187653 6.405298
											CHANNELS 3 Xrotation Yrotation Zrotation
											JOINT LeftHandIndex2
											{
												OFFSET 8.792900 0.000000 0.000000
												CHANNELS 3 Xrotation Yrotation Zrotation
												JOINT LeftHandIndex3
												{
													OFFSET 10.075203 0.000000 0.000000
													CHANNELS 3 Xrotation Yrotation Zrotation
													End Site
													{
														OFFSET 0.000000 0.000000 0.000000
													}
												}
											}
										}
										JOINT LeftHandMiddle1
										{
											OFFSET 25.764404 0.000000 0.000000
											CHANNELS 3 Xrotation Yrotation Zrotation
											JOINT LeftHandMiddle2
											{
												OFFSET 9.393974 0.000000 0.000000
												CHANNELS 3 Xrotation Yrotation Zrotation
												JOINT LeftHandMiddle3
												{
													OFFSET 10.771950 0.000000 0.000000
													CHANNELS 3 Xrotation Yrotation Zrotation
													End Site
													{
														OFFSET 0.000000 0.000000 0.000000
													}
												}
											}
										}
										JOINT LeftHandRing1
										{
											OFFSET 24.660927 0.144547 -6.225808
											CHANNELS 3 Xrotation Yrotation Zrotation
											JOINT LeftHandRing2
											{
												OFFSET 9.393799 0.000000 0.000000
												CHANNELS 3 Xrotation Yrotation Zrotation
												JOINT LeftHandRing3
												{
													OFFSET 9.928497 0.000000 0.000000
													CHANNELS 3 Xrotation Yrotation Zrotation
													End Site
													{
														OFFSET 0.000000 0.000000 0.000000
													}
												}
											}
										}
										JOINT LeftHandPinky1
										{
											OFFSET 23.655350 0.125290 -12.815412
											CHANNELS 3 Xrotation Yrotation Zrotation
											JOINT LeftHandPinky2
											{
												OFFSET 8.425102 0.000000 0.000000
												CHANNELS 3 Xrotation Yrotation Zrotation
												JOINT LeftHandPinky3
												{
													OFFSET 8.147003 0.000000 0.000000
													CHANNELS 3 Xrotation Yrotation Zrotation
													End Site
													{
														OFFSET 0.000000 0.000000 0.000000
													}
												}
											}
										}
									}
								}
							}
						}
					}
					JOINT RightShoulder
					{
						OFFSET -3.249400 8.794197 -1.372250
						CHANNELS 3 Xrotation Yrotation Zrotation
						JOINT RightShoulder_split
						{
							OFFSET -3.249400 8.794197 -1.372250
							CHANNELS 3 Xrotation Yrotation Zrotation
							JOINT RightArm
							{
								OFFSET -11.953299 -2.279007 -0.146200
								CHANNELS 3 Xrotation Yrotation Zrotation
								JOINT RightForeArm
								{
									OFFSET -18.448900 0.000000 0.000000
									CHANNELS 3 Xrotation Yrotation Zrotation
									JOINT RightHand
									{
										OFFSET -29.527802 0.000000 0.000000
										CHANNELS 3 Xrotation Yrotation Zrotation
										JOINT RightHandThumb1
										{
											OFFSET -10.739754 -2.369614 9.225399
											CHANNELS 3 Xrotation Yrotation Zrotation
											JOINT RightHandThumb2
											{
												OFFSET -4.926170 -2.844131 2.844125
												CHANNELS 3 Xrotation Yrotation Zrotation
												JOINT RightHandThumb3
												{
													OFFSET -4.614891 -2.664413 2.664409
													CHANNELS 3 Xrotation Yrotation Zrotation
													JOINT RightHandThumb4
													{
														OFFSET -4.432465 -2.559082 2.559083
														CHANNELS 3 Xrotation Yrotation Zrotation
														End Site
														{
															OFFSET 0.000000 0.000000 0.000000
														}
													}
												}
											}
										}
										JOINT RightHandIndex1
										{
											OFFSET -26.467674 0.187653 6.405298
											CHANNELS 3 Xrotation Yrotation Zrotation
											JOINT RightHandIndex2
											{
												OFFSET -8.792900 0.000000 0.000000
												CHANNELS 3 Xrotation Yrotation Zrotation
												JOINT RightHandIndex3
												{
													OFFSET -10.075203 0.000000 0.000000
													CHANNELS 3 Xrotation Yrotation Zrotation
													End Site
													{
														OFFSET 0.000000 0.000000 0.000000
													}
												}
											}
										}
										JOINT RightHandMiddle1
										{
											OFFSET -25.764404 0.000000 0.000000
											CHANNELS 3 Xrotation Yrotation Zrotation
											JOINT RightHandMiddle2
											{
												OFFSET -9.393974 0.000000 0.000000
												CHANNELS 3 Xrotation Yrotation Zrotation
												JOINT RightHandMiddle3
												{
													OFFSET -10.771950 0.000000 0.000000
													CHANNELS 3 Xrotation Yrotation Zrotation
													End Site
													{
														OFFSET 0.000000 0.000000 0.000000
													}
												}
											}
										}
										JOINT RightHandRing1
										{
											OFFSET -24.660927 0.144547 -6.225808
											CHANNELS 3 Xrotation Yrotation Zrotation
											JOINT RightHandRing2
											{
												OFFSET -9.393799 0.000000 0.000000
												CHANNELS 3 Xrotation Yrotation Zrotation
												JOINT RightHandRing3
												{
													OFFSET -9.928497 0.000000 0.000000
													CHANNELS 3 Xrotation Yrotation Zrotation
													End Site
													{
														OFFSET 0.000000 0.000000 0.000000
													}
												}
											}
										}
										JOINT RightHandPinky1
										{
											OFFSET -23.655350 0.125290 -12.815412
											CHANNELS 3 Xrotation Yrotation Zrotation
											JOINT RightHandPinky2
											{
												OFFSET -8.425102 0.000000 0.000000
												CHANNELS 3 Xrotation Yrotation Zrotation
												JOINT RightHandPinky3
												{
													OFFSET -8.147003 0.000000 0.000000
													CHANNELS 3 Xrotation Yrotation Zrotation
													End Site
													{
														OFFSET 0.000000 0.000000 0.000000
													}
												}
											}
										}
									}
								}
							}
						}
					}
				}
			}
		}
	}
	JOINT LeftUpLeg
	{
		OFFSET 11.394100 -6.187798 -0.413800
		CHANNELS 3 Xrotation Yrotation Zrotation
		JOINT LeftLeg
		{
			OFFSET 0.430247 -32.302673 3.732800
			CHANNELS 3 Xrotation Yrotation Zrotation
			JOINT LeftFoot
			{
				OFFSET -0.430247 -48.264931 -6.423300
				CHANNELS 3 Xrotation Yrotation Zrotation
				JOINT LeftToeBase
				{
					OFFSET 4.230900 -16.068199 23.438400
					CHANNELS 3 Xrotation Yrotation Zrotation
					JOINT LeftToe_End
					{
						OFFSET 4.510700 0.695400 19.974600
						CHANNELS 3 Xrotation Yrotation Zrotation
						End Site
						{
							OFFSET 0.000000 0.000000 0.000000
						}
					}
				}
			}
		}
	}
	JOINT RightUpLeg
	{
		OFFSET -11.333700 -6.187798 -0.413800
		CHANNELS 3 Xrotation Yrotation Zrotation
		JOINT RightLeg
		{
			OFFSET -0.430392 -32.302628 3.733000
			CHANNELS 3 Xrotation Yrotation Zrotation
			JOINT RightFoot
			{
				OFFSET 0.430392 -48.264973 -6.423500
				CHANNELS 3 Xrotation Yrotation Zrotation
				JOINT RightToeBase
				{
					OFFSET -4.230900 -16.068199 23.438400
					CHANNELS 3 Xrotation Yrotation Zrotation
					JOINT RightToe_End
					{
						OFFSET -4.510700 0.695400 19.974600
						CHANNELS 3 Xrotation Yrotation Zrotation
						End Site
						{
							OFFSET 0.000000 0.000000 0.000000
						}
					}
				}
			}
		}
	}
}
MOTION
Frames: 4
Frame Time: 0.016667
0.181077 82.665688 0.125954 11.811170 2.959556 -1.338359 9.874334 1.485924 1.200330 7.603460 0.776393 0.053755 0.000000 0.000000 0.000000 7.594516 0.865696 0.034386 -11.221132 -1.914915 7.441272 -27.443507 2.006291 -5.891919 -0.000000 0.000000 -0.000000 3.557349 -26.212552 4.772370 0.000000 0.000000 0.000000 -62.448706 -21.862952 -66.788212 0.000111 -109.334315 0.000108 0.750556 -5.137680 14.576868 -15.245208 10.163080 26.456302 3.939046 7.948702 0.746820 -0.579452 1.574993 2.538710 0.000002 0.000000 -0.000000 0.000005 -0.000004 0.000002 0.000007 0.000011 -0.000066 -0.000001 -0.000002 -0.000000 -0.000000 -0.001933 0.015984 0.000002 0.001942 -0.016049 0.000000 0.000003 0.000002 0.000005 -0.000005 0.000003 0.000007 0.000013 -0.000067 0.000001 -0.000001 0.000002 -0.018084 4.054251 0.511074 -0.018083 -4.054241 -0.511135 0.000000 -0.000001 -0.000000 1.196393 13.130261 10.955148 0.000000 0.000000 0.000000 -58.753212 43.561208 51.473737 0.000009 106.323943 -0.000010 3.436635 -3.949658 -38.593526 -6.948220 -5.049360 -29.742991 4.637193 -8.634128 -0.225405 -1.273750 0.137304 -2.094867 0.000001 -0.000001 -0.000002 -0.000005 -0.000003 0.000000 0.000010 -0.000004 0.000086 -0.000000 0.000001 -0.000000 -0.000003 -0.000001 -0.000005 0.000012 -0.000001 0.000089 0.000000 0.000002 -0.000000 -0.000005 -0.000003 0.000001 0.000010 -0.000004 0.000086 -0.000000 0.000002 0.000000 -0.000005 -0.000003 0.000000 0.000010 -0.000004 0.000086 -0.000000 0.000000 -0.000000 -64.635562 0.511043 5.479370 76.000649 7.867301 -0.625278 -22.203091 4.664739 -4.702680 -0.000003 -0.000006 -0.000001 0.000000 0.000000 -0.000000 -62.180294 -13.469098 -7.920911 74.873066 -8.285256 -4.606260 -25.772805 -9.127726 3.331181 -0.000003 -0.000006 0.000000 -0.000000 -0.000001 -0.000000 
0.178441 82.662621 0.123365 11.799093 2.949600 -1.332098 9.878016 1.480337 1.207637 7.606522 0.771336 0.057330 0.000000 0.000000 0.000000 7.597686 0.860255 0.038071 -11.217814 -1.906715 7.417776 -27.445210 2.029514 -5.944887 0.000000 -0.000000 -0.000000 3.557352 -26.212553 4.772371 0.000000 0.000000 0.000000 -62.440271 -21.827227 -66.761711 -0.000023 -109.308715 -0.000036 0.684132 -5.143285 14.587529 -15.245209 10.163082 26.456302 3.939043 7.948706 0.746820 -0.579451 1.574996 2.538710 -0.000002 -0.000001 0.000000 0.000004 -0.000004 0.000001 0.000006 0.000009 -0.000067 0.000003 0.000001 0.000001 -0.000001 -0.001935 0.015986 0.000005 0.001945 -0.016047 0.000001 -0.000000 -0.000000 0.000005 -0.000005 0.000003 0.000006 0.000011 -0.000070 0.000003 -0.000001 0.000002 -0.018085 4.054255 0.511072 -0.018084 -4.054247 -0.511136 0.000001 0.000002 0.000000 1.196373 13.156130 10.917912 0.000000 0.000000 0.000000 -58.738828 43.556188 51.453243 0.000111 106.272682 -0.000104 3.405176 -3.961061 -38.612080 -6.948220 -5.049359 -29.742991 4.637192 -8.634125 -0.225405 -1.273750 0.137303 -2.094867 0.000001 0.000000 0.000000 -0.000005 -0.000002 0.000001 0.000010 -0.000008 0.000086 -0.000000 0.000002 -0.000000 -0.000003 -0.000002 -0.000005 0.000012 -0.000002 0.000089 0.000000 0.000000 0.000000 -0.000005 -0.000002 0.000001 0.000010 -0.000008 0.000086 -0.000000 0.000002 0.000000 -0.000005 -0.000002 0.000001 0.000010 -0.000008 0.000086 -0.000000 0.000002 -0.000000 -64.625638 0.510483 5.482250 76.006249 7.870775 -0.627934 -22.206429 4.666648 -4.707309 -0.000003 -0.000006 -0.000001 0.000000 -0.000001 0.000000 -62.178012 -13.471065 -7.911525 74.879924 -8.284954 -4.618805 -25.772375 -9.130435 3.328687 -0.000003 -0.000004 0.000000 -0.000000 0.000001 0.000000 
0.175986 82.659340 0.120895 11.789698 2.942061 -1.327091 9.881220 1.474541 1.213968 7.609030 0.766257 0.060673 0.000000 0.000000 0.000000 7.600269 0.854941 0.041498 -11.217682 -1.900473 7.402070 -27.452692 2.051494 -5.990263 0.000000 -0.000000 -0.000000 3.557349 -26.212550 4.772371 0.000000 0.000000 0.000000 -62.433489 -21.799046 -66.740292 -0.000118 -109.303032 -0.000115 0.645399 -5.153767 14.610231 -15.245209 10.163079 26.456302 3.939045 7.948706 0.746819 -0.579451 1.575001 2.538712 -0.000002 0.000001 0.000000 0.000005 -0.000003 0.000000 0.000007 0.000009 -0.000070 0.000000 0.000000 0.000001 -0.000001 -0.001928 0.015983 0.000002 0.001943 -0.016047 -0.000001 0.000001 0.000003 0.000005 -0.000004 0.000001 0.000005 0.000009 -0.000070 0.000002 0.000001 -0.000002 -0.018085 4.054256 0.511069 -0.018082 -4.054243 -0.511135 0.000000 -0.000000 0.000001 1.196227 13.178828 10.886481 0.000000 0.000000 0.000000 -58.723337 43.560354 51.421052 0.000152 106.244713 -0.000161 3.384694 -3.970394 -38.621294 -6.948220 -5.049359 -29.742991 4.637191 -8.634127 -0.225405 -1.273749 0.137302 -2.094867 0.000001 0.000003 0.000001 -0.000005 0.000000 0.000000 0.000010 -0.000007 0.000085 -0.000000 0.000000 -0.000001 -0.000003 0.000001 -0.000005 0.000012 -0.000004 0.000088 0.000000 -0.000003 -0.000000 -0.000005 0.000000 0.000000 0.000010 -0.000006 0.000085 -0.000000 0.000000 -0.000001 -0.000005 -0.000000 0.000000 0.000010 -0.000006 0.000085 -0.000000 0.000000 -0.000000 -64.619532 0.510765 5.483059 76.011994 7.874078 -0.628194 -22.209407 4.670321 -4.711234 -0.000003 -0.000006 -0.000001 0.000000 -0.000001 0.000000 -62.178955 -13.477077 -7.906992 74.887109 -8.284046 -4.630836 -25.773307 -9.129834 3.326468 -0.000003 -0.000006 0.000000 -0.000000 -0.000001 -0.000000 
0.173926 82.655998 0.118780 11.783576 2.936900 -1.323134 9.883991 1.468205 1.218464 7.610893 0.761037 0.063448 0.000000 0.000000 0.000000 7.602198 0.849652 0.044324 -11.220969 -1.896257 7.395013 -27.466498 2.071049 -6.020810 0.000000 -0.000000 0.000000 3.557351 -26.212555 4.772371 0.000000 0.000000 0.000000 -62.430456 -21.781190 -66.726358 0.000050 -109.318428 0.000066 0.640055 -5.168572 14.635393 -15.245211 10.163076 26.456301 3.939041 7.948701 0.746817 -0.579449 1.575000 2.538712 0.000001 -0.000002 -0.000001 0.000004 -0.000007 0.000002 0.000006 0.000008 -0.000069 0.000002 0.000002 -0.000001 -0.000000 -0.001936 0.015986 0.000004 0.001941 -0.016047 0.000000 0.000003 0.000001 0.000005 -0.000008 0.000003 0.000005 0.000008 -0.000067 0.000001 -0.000002 0.000000 -0.018085 4.054248 0.511073 -0.018083 -4.054244 -0.511135 0.000001 0.000000 -0.000001 1.195829 13.196533 10.865737 0.000000 0.000000 0.000000 -58.712716 43.570753 51.388557 0.000016 106.243859 0.000007 3.384065 -3.974722 -38.619904 -6.948220 -5.049360 -29.742991 4.637193 -8.634130 -0.225405 -1.273748 0.137304 -2.094871 0.000001 0.000004 0.000000 -0.000004 -0.000004 0.000001 0.000010 -0.000006 0.000086 -0.000000 -0.000002 0.000000 -0.000003 -0.000006 -0.000004 0.000012 -0.000008 0.000089 -0.000000 -0.000003 0.000000 -0.000004 -0.000003 0.000001 0.000010 -0.000006 0.000086 -0.000000 -0.000002 -0.000000 -0.000004 -0.000004 0.000001 0.000010 -0.000006 0.000086 0.000000 -0.000002 -0.000000 -64.617776 0.512265 5.481392 76.017656 7.877279 -0.625539 -22.211420 4.674516 -4.714713 -0.000003 -0.000005 -0.000001 0.000000 0.000002 -0.000000 -62.182855 -13.484492 -7.907825 74.894493 -8.281719 -4.639930 -25.774499 -9.126277 3.324551 -0.000003 -0.000006 0.000000 -0.000000 -0.000001 0.000000 
